<?xml version="1.0" encoding="UTF-8"?>
<svg id="Layer_1" data-name="Layer 1" xmlns="http://www.w3.org/2000/svg" viewBox="0 0 714 714">
  <defs>
    <style>
      .cls-1 {
        letter-spacing: -.02em;
      }

      .cls-2 {
        letter-spacing: -.1em;
      }

      .cls-3 {
        fill: #fff;
      }

      .cls-4 {
        font-family: 'Claris_Sans', 'Claris Sans';
        font-size: 68.86px;
      }

      .cls-4, .cls-5 {
        fill: #005653;
      }

      .cls-6 {
        letter-spacing: 0em;
      }

      .cls-7 {
        fill: #00dc82;
      }

      .cls-8 {
        letter-spacing: -.06em;
      }

      .cls-9 {
        letter-spacing: -.07em;
      }

      .cls-10 {
        letter-spacing: -.03em;
      }

      .cls-11 {
        letter-spacing: -.07em;
      }
    </style>
  </defs>
  <rect class="cls-3" x="16.5" y="21" width="681" height="672" rx="47.5" ry="47.5"/>
  <g>
    <path class="cls-7" d="M224.3,331.52v26.41c0,5.49,6.06,8.84,10.71,5.9l51.12-32.31h-61.83Z"/>
    <path class="cls-5" d="M499.99,210.02v84.58c0,20.38-16.52,36.9-36.94,36.9h-238.73v-158.42h-30.62c-5.08,0-9.18-4.11-9.18-9.18v-18.75c0-5.08,4.11-9.18,9.18-9.18h66.8v37.11h202.54c20.42,0,36.94,16.52,36.94,36.94"/>
    <polygon class="cls-7" points="297.49 173.08 260.51 173.08 260.51 136.09 297.49 173.08"/>
    <path class="cls-7" d="M407.9,243.67c3.79,4.12,3,10.62-1.6,13.79-11.94,8.21-26.4,13.01-41.95,13.01-17.82,0-34.18-6.28-46.97-16.75-4.32-3.53-4.5-10.07-.4-13.84l.02-.02c3.28-3.02,8.35-3.34,11.79-.49,9.65,7.97,22.04,12.78,35.56,12.78,11.75,0,22.72-3.64,31.74-9.86,3.72-2.56,8.77-1.94,11.82,1.39"/>
    <path class="cls-7" d="M345.28,412.89c0,23.52-19.07,42.59-42.59,42.59s-42.59-19.07-42.59-42.59,19.07-42.59,42.59-42.59,42.59,19.07,42.59,42.59"/>
    <path class="cls-7" d="M499.99,412.89c0,23.52-19.07,42.59-42.59,42.59s-42.59-19.07-42.59-42.59,19.07-42.59,42.59-42.59,42.59,19.07,42.59,42.59"/>
  </g>
  <text class="cls-4" transform="translate(115.47 551.38)"><tspan x="0" y="0">Fu</tspan><tspan class="cls-1" x="79.81" y="0">d</tspan><tspan class="cls-9" x="124.49" y="0">a</tspan><tspan class="cls-2" x="165.19" y="0">y</tspan><tspan class="cls-6" x="201.55" y="0">di</tspan><tspan class="cls-8" x="265.1" y="0">y</tspan><tspan x="304.15" y="0">e </tspan><tspan class="cls-10" x="359.58" y="0">P</tspan><tspan class="cls-11" x="404.95" y="0">a</tspan><tspan class="cls-6" x="445.65" y="0">y</tspan></text>
</svg>