<?xml version="1.0" encoding="UTF-8"?>
<svg id="Layer_1" data-name="Layer 1" xmlns="http://www.w3.org/2000/svg" viewBox="0 0 18.22 18.22">
  <path d="M12.74,0c.13,1.35-.52,2.64-1.53,3.5-.35.3-1.09.69-1.55.69h-.59c-.12-1.83,1.1-3.43,2.79-4.02l.66-.18h.21Z"/>
  <path d="M15.54,5.55c.08.07.51.58.5.65-.67.47-1.29,1.02-1.63,1.78-.53,1.2-.4,2.8.32,3.9.44.67,1.12,1.11,1.8,1.5-.36,1.1-.93,2.12-1.6,3.05-.38.53-.82,1.12-1.39,1.45-1.49.86-2.66-.44-4.1-.44-1.77,0-2.74,1.61-4.5.09-2.24-1.93-3.76-6.34-3.11-9.22.53-2.35,2.6-4.33,5.14-3.78.93.2,1.78.88,2.73.6.63-.19,1.19-.5,1.86-.63,1.35-.27,2.97.09,3.97,1.06Z"/>
</svg>