<?xml version="1.0" encoding="UTF-8"?>
<svg id="Layer_1" data-name="Layer 1" xmlns="http://www.w3.org/2000/svg" viewBox="0 0 384 384">
  <path d="M66,383.76c-2.98.32-9.02.32-12,0-4.28-.46-13.28-3.58-17.04-5.82-.6-.36-1.26.23-.95-1.27l175.87-175.42,71.61,66.19-206.04,113.15c-3.42.92-8.04,2.81-11.45,3.17Z"/>
  <path d="M18.01,23.94l176.23,161.21L18.39,359.83c-4.14-5.63-5.63-12.99-6.42-19.79V43.74c.66-7,3.26-13.46,6.04-19.8Z"/>
  <path d="M54.58.96c7.95-.9,15.98.36,23.4,3.17l192,105.46-59.46,57.9L37.11,7.48c-.72-.57.41-1.09.87-1.39,3.34-2.23,12.52-4.67,16.61-5.13Z"/>
  <path d="M291.53,122.03c1.53-.39,12.58,5.97,14.97,7.25,13.5,7.23,29.16,15.18,42,23.19,15.13,9.43,24.83,24.78,23.48,43.13-2.57,35.06-40.95,43.52-65.75,59.37l-77.47-70.57,62.77-62.37Z"/>
</svg>